<svg width="137px" height="83px" viewBox="0 0 137 83" version="1.1" xmlns="http://www.w3.org/2000/svg"
    xmlns:xlink="http://www.w3.org/1999/xlink">
    <g id="Page-2" stroke="none" stroke-width="1" fill="none" fill-rule="evenodd">
        <g id="Artboard" transform="translate(-476.000000, -298.000000)" fill="url(#linearGradient-1)"
            fill-rule="nonzero">
            <path
                d="M550.010799,315.230956 C550.245401,315.863447 550.731632,316.368114 551.354083,316.625655 C551.977481,316.883196 552.678448,316.868994 553.289548,316.586835 C555.821922,315.408016 558.579438,314.797302 561.37101,314.794462 C570.573452,314.811505 578.497882,321.29927 580.335911,330.324574 C580.598892,331.636898 581.875958,332.485269 583.185187,332.220153 C584.762127,331.903907 586.3665,331.742944 587.976549,331.74105 C601.334658,331.74105 612.163231,342.580504 612.163231,355.948975 C612.163231,369.319339 601.334658,380.158058 587.976549,380.158058 L498.486393,380.158058 C486.562381,380.209923 476.818842,370.643026 476.640998,358.709021 C476.464101,346.775017 485.917227,336.92312 497.8384,336.619183 C498.612208,336.597406 499.328311,336.20636 499.765351,335.567241 C500.204283,334.927176 500.309287,334.117625 500.049143,333.38761 C495.248322,319.636615 502.389485,304.57803 516.069225,299.606159 C529.74802,294.634289 544.878886,301.60021 550.010799,315.230956 Z M527.449219,348.863281 C524.929688,348.863281 524.929688,348.863281 523.541016,350.134766 C522.152344,351.40625 522.152344,351.40625 522.152344,353.175781 C522.152344,354.675781 522.152344,354.675781 523.042969,355.472656 C523.933594,356.28125 523.933594,356.28125 526.101562,356.820312 C529.113281,357.535156 529.113281,357.535156 529.582031,357.828125 C530.050781,358.121094 530.050781,358.121094 530.050781,358.683594 C530.050781,359.269531 530.050781,359.269531 529.470703,359.5625 C528.890625,359.855469 528.890625,359.855469 527.90625,359.855469 C526.230469,359.855469 526.230469,359.855469 525.609375,359.1875 C525.301758,358.859375 525.301758,358.859375 525.182556,358.136475 L525.152344,357.921875 L521.765625,357.921875 C521.765625,359.890625 521.765625,359.890625 523.201172,361.162109 C524.636719,362.433594 524.636719,362.433594 527.648438,362.433594 C530.601562,362.433594 530.601562,362.433594 532.013672,361.232422 C533.425781,360.03125 533.425781,360.03125 533.425781,358.132812 C533.425781,356.691406 533.425781,356.691406 532.441406,355.730469 C531.445312,354.78125 531.445312,354.78125 529.453125,354.3125 C526.464844,353.65625 526.464844,353.65625 525.972656,353.386719 C525.480469,353.128906 525.480469,353.128906 525.480469,352.554688 C525.480469,352.097656 525.480469,352.097656 525.943359,351.757812 C526.40625,351.417969 526.40625,351.417969 527.496094,351.417969 C528.820312,351.417969 528.820312,351.417969 529.371094,352.097656 C529.62221,352.419085 529.62221,352.419085 529.709742,352.938536 L529.734375,353.117188 L533.074219,353.117188 C532.851562,350.773438 532.851562,350.773438 531.345703,349.818359 C529.839844,348.863281 529.839844,348.863281 527.449219,348.863281 Z M547.523438,344.75 L544.136719,344.75 L544.136719,350.84375 C543.574219,349.941406 543.574219,349.941406 542.671875,349.431641 C541.769531,348.921875 541.769531,348.921875 540.609375,348.921875 C538.089844,348.921875 538.089844,348.921875 536.583984,350.796875 C535.078125,352.671875 535.078125,352.671875 535.078125,355.941406 C535.078125,358.777344 535.078125,358.777344 536.607422,360.587891 C538.136719,362.398438 538.136719,362.398438 540.375,362.398438 C541.734375,362.398438 541.734375,362.398438 542.648438,361.882812 C543.460938,361.424479 543.460938,361.424479 544.11603,360.475405 L544.277344,360.230469 L544.277344,362 L547.523438,362 L547.523438,344.75 Z M555.585938,348.921875 C552.363281,348.921875 552.363281,348.921875 551.039062,350.609375 C550.28267,351.589489 550.28267,351.589489 550.126743,353.063533 L550.101562,353.363281 L553.324219,353.363281 C553.441406,352.625 553.441406,352.625 553.792969,352.191406 C554.285156,351.605469 554.285156,351.605469 555.46875,351.605469 C556.523438,351.605469 556.523438,351.605469 557.068359,351.904297 C557.613281,352.203125 557.613281,352.203125 557.613281,352.988281 C557.613281,353.632812 557.613281,353.632812 556.898438,353.9375 C556.549805,354.091309 556.549805,354.091309 555.797424,354.200256 L555.574219,354.230469 L554.4375,354.371094 C552.503906,354.617188 552.503906,354.617188 551.507812,355.191406 C549.691406,356.246094 549.691406,356.246094 549.691406,358.601562 C549.691406,360.417969 549.691406,360.417969 550.822266,361.408203 C551.953125,362.398438 551.953125,362.398438 553.6875,362.398438 C555.046875,362.398438 555.046875,362.398438 556.125,361.777344 C557.027344,361.25 557.027344,361.25 557.71875,360.5 C557.753906,360.933594 557.753906,360.933594 557.8125,361.273438 C557.856445,361.52832 557.856445,361.52832 557.953125,361.80957 L558.023438,362 L561.65625,362 L561.65625,361.507812 C561.328125,361.355469 561.328125,361.355469 561.164062,361.121094 C561,360.886719 561,360.886719 560.964844,360.230469 C560.946094,359.536719 560.946094,359.536719 560.942344,359.007969 L560.941406,358.753906 L560.941406,352.894531 C560.941406,350.585938 560.941406,350.585938 559.3125,349.753906 C557.683594,348.921875 557.683594,348.921875 555.585938,348.921875 Z M518.332031,345.78125 L515.027344,345.78125 L515.027344,349.34375 L513.246094,349.34375 L513.246094,351.722656 L515.027344,351.722656 L515.027344,359.585938 C515.027344,360.78125 515.027344,360.78125 515.589844,361.355469 C516.348633,362.14502 516.348633,362.14502 518.255859,362.180908 L518.53418,362.18219 L518.824219,362.175781 L520.40625,362.117188 L520.40625,359.621094 C520.242188,359.632812 520.242188,359.632812 520.072266,359.638672 C519.902344,359.644531 519.902344,359.644531 519.75,359.644531 C518.730469,359.644531 518.730469,359.644531 518.53125,359.451172 C518.354167,359.279297 518.354167,359.279297 518.334491,358.639829 L518.332031,358.472656 L518.332031,351.722656 L520.40625,351.722656 L520.40625,349.34375 L518.332031,349.34375 L518.332031,345.78125 Z M566.402344,349.226562 L562.652344,349.226562 L567.234375,362 L570.761719,362 L575.367188,349.226562 L571.78125,349.226562 L569.0625,358.648438 L566.402344,349.226562 Z M557.601562,355.789062 L557.601562,357.03125 C557.566406,358.707031 557.566406,358.707031 556.658203,359.339844 C555.75,359.972656 555.75,359.972656 554.671875,359.972656 C553.992188,359.972656 553.992188,359.972656 553.517578,359.591797 C553.042969,359.210938 553.042969,359.210938 553.042969,358.355469 C553.042969,357.394531 553.042969,357.394531 553.816406,356.9375 C554.222656,356.697917 554.222656,356.697917 555.101128,356.523148 L555.328125,356.480469 L556.078125,356.339844 C556.640625,356.234375 556.640625,356.234375 556.962891,356.111328 C557.177734,356.029297 557.177734,356.029297 557.389974,355.913411 L557.601562,355.789062 Z M541.359375,351.839844 C542.320312,351.839844 542.320312,351.839844 543.046875,352.449219 C544.230469,353.457031 544.230469,353.457031 544.230469,355.800781 C544.230469,357.476562 544.230469,357.476562 543.492188,358.53125 C542.753906,359.585938 542.753906,359.585938 541.335938,359.585938 C539.917969,359.585938 539.917969,359.585938 539.220703,358.525391 C538.523438,357.464844 538.523438,357.464844 538.523438,355.695312 C538.523438,354.054688 538.523438,354.054688 539.208984,352.947266 C539.894531,351.839844 539.894531,351.839844 541.359375,351.839844 Z"
                id="Combined-Shape"></path>
        </g>
    </g>
    <linearGradient id="linearGradient-1">
        <stop offset="0%" stop-color="#3EDBF0" />
        <stop offset="100%" stop-color="#77ACF1" />
    </linearGradient>
</svg>